<?xml version="1.0" encoding="UTF-8" standalone="no"?>
<!-- Created with Inkscape (http://www.inkscape.org/) -->

<svg
   version="1.1"
   id="svg1"
   viewBox="0 0 512 512"
   fill="#00FFFB"
   sodipodi:docname="donate.svg"
   inkscape:version="1.4 (86a8ad7, 2024-10-11)"
   xmlns:inkscape="http://www.inkscape.org/namespaces/inkscape"
   xmlns:sodipodi="http://sodipodi.sourceforge.net/DTD/sodipodi-0.dtd"
   xmlns="http://www.w3.org/2000/svg"
   xmlns:svg="http://www.w3.org/2000/svg">
  <sodipodi:namedview
     id="namedview1"
     pagecolor="#505050"
     bordercolor="#eeeeee"
     borderopacity="1"
     inkscape:showpageshadow="0"
     inkscape:pageopacity="0"
     inkscape:pagecheckerboard="0"
     inkscape:deskcolor="#505050"
     inkscape:zoom="1.2402344"
     inkscape:cx="256"
     inkscape:cy="256"
     inkscape:window-width="1600"
     inkscape:window-height="837"
     inkscape:window-x="-8"
     inkscape:window-y="-8"
     inkscape:window-maximized="1"
     inkscape:current-layer="svg1" />
  <defs
     id="defs1" />
  <path
     d="M 305,434 C 250.00067,396.58701 226.61876,325.62662 253.86188,264 261.93411,245.73981 273.7915,230.86954 288,217.01465 c 12.7926,-12.47424 29.28705,-21.83377 46,-27.96143 33.73215,-12.36758 72.62595,-10.46753 105,5.20526 12.72757,6.16162 22.70831,16.3989 35,22.74152 5.41174,-26.23328 6.94858,-52.85452 -0.42825,-79 C 454.41336,70.097412 389.59619,27.835876 320,40.084106 c -20.12805,3.542328 -40.2551,13.47345 -56,26.380402 -5.70599,4.677521 -10.87581,10.157623 -15.91435,15.534729 -1.52727,1.629883 -3.59543,4.94519 -6.13581,4.94519 -4.73263,0 -12.57115,-11.713043 -15.94984,-14.854919 C 214.13092,61.052338 199.96849,52.64859 185,46.604187 117.62548,19.397766 41.440117,56.772339 15.203704,123 c -13.2673408,33.4903 -15.23964608,75.88879 0.285494,109 10.957547,23.36969 29.724829,44.44998 45.137347,65 33.42242,44.56323 69.204255,86.73401 106.543205,128 15.42327,17.04535 33.75582,33.4729 52.83025,46.33026 5.80542,3.91321 14.57889,11.75458 22,11.35184 13.97437,-0.75839 30.97729,-17.57044 41,-26.10956 7.51413,-6.40189 17.76279,-13.48618 22,-22.57254 M 373,191.42438 C 326.05716,197.59094 284.86646,220.13345 264.30865,265 224.52832,351.819 295.96066,457.32025 393,445.71451 456.84973,438.07819 505.14288,386.44022 507.96063,322 511.00861,252.29483 445.06201,181.9581 373,191.42438 M 367,244 c 0,-10.77185 7.92966,-30.63437 21.46683,-17.44214 4.72024,4.59998 1.12893,12.84769 5.85107,16.50772 9.75464,7.56061 32.70065,10.33502 31.375,27.93442 -0.48877,6.48895 -7.26459,11.87579 -13.6929,10.59027 -7.06277,-1.41238 -11.01517,-8.8111 -17,-12.22299 -14.41678,-8.21884 -46.20102,-2.32257 -40.44214,19.63272 4.25763,16.23187 25.47858,15.52435 38.44214,18.42517 25.96112,5.8092 42.77554,27.84461 36.3233,54.57483 -2.73901,11.34708 -11.23175,20.30646 -21.3233,25.6767 -3.9303,2.09149 -10.31323,2.76965 -13.39661,6.02545 -5.96222,6.29559 -3.01562,26.31891 -19.56326,19.06946 -8.98068,-3.93442 -4.48276,-12.82196 -9.64352,-18.18286 -2.52768,-2.62574 -8.056,-2.8202 -11.39661,-3.94446 -10.14163,-3.41315 -38.17972,-19.63889 -20.94522,-31.94135 8.98556,-6.41418 16.57974,3.34125 23.94522,7.39197 10.81396,5.94727 28.47345,7.64618 38.99924,0.25616 10.65295,-7.4793 12.21887,-20.92309 2.89581,-30.24615 C 385.70981,322.91968 361.56982,327.49493 346,316.56018 313.75061,293.91138 330.73865,248.88693 367,244 Z"
     id="path1" />
</svg>
